<?xml version="1.0" encoding="UTF-8"?>
<svg version="1.1" xmlns="http://www.w3.org/2000/svg" width="16" height="16">
<path d="M0 0 C3.3 0 6.6 0 10 0 C9.625 2.4375 9.625 2.4375 9 5 C8.01 5.495 8.01 5.495 7 6 C7.515625 6.37125 8.03125 6.7425 8.5625 7.125 C10 9 10 9 9.75 12.125 C9 15 9 15 8 16 C5.0625 16.25 5.0625 16.25 2 16 C0 13 0 13 0.25 10.4375 C1 8 1 8 3 6 C2.34 5.67 1.68 5.34 1 5 C0.375 2.4375 0.375 2.4375 0 0 Z " fill="#FFD20E" transform="translate(3,0)"/>
<path d="M0 0 C3.3 0 6.6 0 10 0 C9.62403791 2.78211944 9.32681541 4.5879284 7.5625 6.8125 C6 8 6 8 4 8 C1.6716065 6.23042094 1.04711194 5.18416484 0.3125 2.3125 C0.209375 1.549375 0.10625 0.78625 0 0 Z " fill="#CBAA25" transform="translate(3,0)"/>
<path d="M0 0 C1.32 0.66 2.64 1.32 4 2 C3.67 3.32 3.34 4.64 3 6 C1.68 6 0.36 6 -1 6 C-1.625 4.125 -1.625 4.125 -2 2 C-1.34 1.34 -0.68 0.68 0 0 Z " fill="#FFE794" transform="translate(7,8)"/>
</svg>
