<?xml version="1.0" encoding="UTF-8"?>
<svg version="1.1" xmlns="http://www.w3.org/2000/svg" width="512" height="512">
<path d="M0 0 C0.84278789 -0.00445784 1.68557577 -0.00891569 2.55390269 -0.01350862 C3.47995245 -0.01332426 4.40600222 -0.01313989 5.3601141 -0.01294994 C6.34384139 -0.01662663 7.32756867 -0.02030332 8.34110588 -0.02409142 C11.65278062 -0.03514532 14.96442401 -0.03897503 18.27611446 -0.04278088 C20.64453894 -0.04904431 23.01296244 -0.055691 25.38138485 -0.0626936 C32.50074526 -0.08193442 39.62010626 -0.09252474 46.73948541 -0.10142139 C50.09388392 -0.10580593 53.44828085 -0.1111724 56.80267811 -0.11641026 C67.95721674 -0.13342389 79.1117544 -0.14791658 90.26630402 -0.155159 C93.16085022 -0.15706883 96.05539642 -0.15898917 98.94994259 -0.16094494 C99.66935175 -0.16142868 100.38876092 -0.16191242 101.12997036 -0.16241082 C112.77575393 -0.17070552 124.42143459 -0.19603233 136.06717325 -0.22852562 C148.02962985 -0.26162976 159.99203422 -0.27961088 171.95453686 -0.28280324 C178.66855205 -0.28496549 185.38239442 -0.29411716 192.09636784 -0.31926441 C198.41567112 -0.34255026 204.73470488 -0.34677604 211.05403996 -0.33650303 C213.37032117 -0.33600767 215.68661568 -0.34232816 218.00285625 -0.35605907 C221.17214975 -0.3737918 224.34047744 -0.36666428 227.5097723 -0.35352612 C228.42020701 -0.36449536 229.33064173 -0.37546461 230.26866537 -0.38676625 C240.59804459 -0.2838267 248.26154731 3.57694979 255.67626095 10.61859608 C263.32523645 19.35253264 264.57085486 29.01945155 264.05419064 40.17377186 C263.19893751 49.76550735 257.06421434 56.25559964 250.31688595 62.50922108 C247.59445558 64.32417466 244.98681428 65.15382531 241.87938595 66.13422108 C241.8893787 66.95868732 241.8893787 66.95868732 241.89957333 67.79980946 C241.96649592 73.57593338 242.01141989 79.35194528 242.04418087 85.1283617 C242.05916808 87.27749583 242.07956482 89.42659991 242.10570431 91.57562733 C242.46478436 121.87916747 242.46478436 121.87916747 231.87938595 135.13422108 C225.05349589 141.44934913 217.40865914 146.64419673 209.62938595 151.69672108 C201.27739194 157.18975072 193.00544678 162.77525009 184.81688595 168.50922108 C176.24729003 174.50482042 167.61202859 180.37937611 158.87938595 186.13422108 C156.87781313 187.46521333 154.8784716 188.79949322 152.87938595 190.13422108 C153.09594845 190.65886951 153.31251095 191.18351795 153.53563595 191.72406483 C157.57559682 202.96488188 157.45341449 215.34491132 152.75438595 226.32562733 C152.46563595 226.92246326 152.17688595 227.5192992 151.87938595 228.13422108 C153.36438595 227.39172108 153.36438595 227.39172108 154.87938595 226.63422108 C162.94537209 223.63459278 173.48270296 223.83182105 181.50438595 226.82172108 C190.98425741 231.3872779 196.38778241 238.83198115 200.00438595 248.50922108 C200.27508907 249.32133045 200.5457922 250.13343983 200.82469845 250.97015858 C202.13514149 253.65899357 203.28207875 254.66105382 205.87938595 256.13422108 C208.61105068 256.77789409 208.61105068 256.77789409 211.56688595 257.07172108 C220.96313828 258.48743832 228.55835364 261.83542561 234.87938595 269.13422108 C239.75704474 277.09823965 241.03026497 283.4957692 240.6645422 292.71039295 C240.56969077 297.62111007 241.09447468 300.90734464 243.87938595 305.13422108 C245.85509221 307.01689071 245.85509221 307.01689071 248.12938595 308.50922108 C256.387189 314.65893457 261.48672031 320.95115006 263.87938595 331.13422108 C265.07332429 340.07519116 262.81216768 348.15459225 258.12938595 355.75922108 C255.96811355 359.48577864 255.29207935 361.93007222 256.1567297 366.16937733 C257.24025551 369.11539616 258.92281486 371.54880912 260.66844845 374.14203358 C264.26388265 380.05710274 264.67619832 387.39119641 263.87938595 394.13422108 C260.99522213 405.88391116 255.41096678 412.65070681 245.27001095 418.98187733 C242.10150292 421.83457002 241.62470184 423.96922048 240.87938595 428.13422108 C240.84249289 430.571798 240.88610789 433.01173593 241.00438595 435.44672108 C241.10660633 445.82209016 238.3231224 452.66368143 231.12938595 460.16156483 C224.32877266 466.12390808 216.75283111 467.85301315 207.98094845 469.26312733 C204.40545381 470.26732796 203.11564018 471.20134589 200.87938595 474.13422108 C199.58888072 476.88334743 199.58888072 476.88334743 198.56688595 479.88422108 C194.54357341 489.84555514 189.39759901 494.40541044 179.74657345 499.00531483 C171.19127174 502.37381918 163.99729171 501.29998104 155.42626095 498.81390858 C151.21360909 497.68967327 148.29396713 497.47868346 144.31688595 499.32172108 C141.7763277 501.11906545 141.7763277 501.11906545 139.44188595 503.57172108 C133.54801664 509.46559038 127.48171218 512.32870068 119.11937618 512.51434803 C111.93022191 512.49639011 106.07331402 512.08860904 99.87938595 508.13422108 C98.91258907 507.52127186 98.91258907 507.52127186 97.92626095 506.89593983 C94.554991 504.60829237 91.71101691 502.07072726 88.87938595 499.13422108 C84.48745459 496.9382554 78.37447679 498.93323055 73.81688595 500.19672108 C65.14757715 502.44937612 56.16194391 501.18949363 48.38719845 496.69281483 C40.66109161 491.08683495 36.28046208 483.85477123 32.8364172 475.07953358 C31.69562437 472.76069755 30.99927011 471.6509217 28.87938595 470.13422108 C26.15966821 469.42985443 23.5073039 468.8454527 20.75438595 468.32172108 C10.55994178 466.14003069 2.76260007 462.03951175 -3.12061405 453.13422108 C-7.24094098 446.33118908 -7.49172358 439.93051688 -7.06153202 432.19916248 C-6.84577452 427.31355412 -7.37454072 424.2065894 -10.12061405 420.13422108 C-12.59088265 418.04960352 -12.59088265 418.04960352 -15.43311405 416.32172108 C-23.37780255 410.80136949 -28.1870673 403.67305172 -30.12061405 394.13422108 C-31.16343369 385.09645084 -29.06763945 377.16606643 -24.37061405 369.44672108 C-22.69903779 366.53035398 -22.1277839 365.26088845 -21.93311405 361.82172108 C-23.4078018 357.24242755 -25.48217156 353.14226603 -27.74561405 348.90375233 C-31.42116098 341.500449 -31.08736013 333.20739923 -28.55811405 325.44672108 C-25.14157831 316.9659586 -18.893992 311.35347597 -11.43311405 306.32172108 C-8.38995556 303.44305764 -8.02347413 301.20333241 -7.12061405 297.13422108 C-7.083721 294.69664415 -7.127336 292.25670622 -7.24561405 289.82172108 C-7.35216574 279.99959249 -4.90562162 273.01360398 1.92626095 265.88031483 C8.22173639 260.25215978 15.1779425 258.26962322 23.29515743 256.65277576 C27.65283637 255.72333519 30.17822302 254.7271555 32.87938595 251.13422108 C33.94524257 248.87774539 33.94524257 248.87774539 34.69188595 246.44672108 C38.41394245 236.68889728 44.43830018 230.562201 53.87938595 226.13422108 C60.90693817 223.65568653 72.01641599 224.01740519 78.87938595 226.63422108 C79.86938595 227.12922108 80.85938595 227.62422108 81.87938595 228.13422108 C81.59063595 227.53738514 81.30188595 226.9405492 81.00438595 226.32562733 C76.82708721 216.56409244 75.9058011 204.93067526 79.37938595 194.75922108 C79.87438595 193.56297108 80.36938595 192.36672108 80.87938595 191.13422108 C80.87938595 190.14422108 80.87938595 189.15422108 80.87938595 188.13422108 C79.01809282 186.47919616 79.01809282 186.47919616 76.5082922 184.93890858 C75.55422482 184.31427723 74.60015743 183.68964588 73.61717892 183.04608631 C72.56933224 182.37392078 71.52148556 181.70175526 70.44188595 181.00922108 C68.79347597 179.93190698 67.1450871 178.85455889 65.49797726 177.77525806 C64.354116 177.02617324 63.20944754 176.27831971 62.0640173 175.53163624 C55.01989439 170.93661543 48.08200748 166.18653287 41.13768673 161.44257069 C36.00696621 157.93914598 30.86742533 154.45204879 25.6957922 151.00922108 C24.70595333 150.34607899 23.71611446 149.6829369 22.69628048 148.99969959 C20.84660266 147.76119648 18.99245706 146.52932576 17.13280392 145.30585194 C6.56214187 138.19876419 -1.60772773 130.20497705 -4.69748783 117.52618885 C-5.4996425 112.9915417 -5.36291466 108.44432832 -5.31592655 103.85297108 C-5.31309666 102.7988805 -5.31026676 101.74478992 -5.30735111 100.65875721 C-5.29622391 97.31712598 -5.27113309 93.97577027 -5.24561405 90.63422108 C-5.23557461 88.3581833 -5.22645045 86.08214129 -5.2182703 83.80609608 C-5.19630905 78.24871161 -5.16290635 72.69148604 -5.12061405 67.13422108 C-5.90452518 66.98871815 -6.68843632 66.84321522 -7.49610233 66.69330311 C-14.5848633 65.18323217 -20.65813432 59.63870115 -25.12061405 54.13422108 C-30.9005975 44.78115696 -31.65595203 33.89390219 -29.54248905 23.21234608 C-26.46894696 14.43878046 -19.98697416 7.26469376 -11.74561405 3.07172108 C-7.78728785 1.30618193 -4.36011962 0.01070355 0 0 Z " fill="#7E7E7E" transform="translate(139.12061405181885,-0.13422107696533203)"/>
<path d="M0 0 C0.84278789 -0.00445784 1.68557577 -0.00891569 2.55390269 -0.01350862 C3.47995245 -0.01332426 4.40600222 -0.01313989 5.3601141 -0.01294994 C6.34384139 -0.01662663 7.32756867 -0.02030332 8.34110588 -0.02409142 C11.65278062 -0.03514532 14.96442401 -0.03897503 18.27611446 -0.04278088 C20.64453894 -0.04904431 23.01296244 -0.055691 25.38138485 -0.0626936 C32.50074526 -0.08193442 39.62010626 -0.09252474 46.73948541 -0.10142139 C50.09388392 -0.10580593 53.44828085 -0.1111724 56.80267811 -0.11641026 C67.95721674 -0.13342389 79.1117544 -0.14791658 90.26630402 -0.155159 C93.16085022 -0.15706883 96.05539642 -0.15898917 98.94994259 -0.16094494 C99.66935175 -0.16142868 100.38876092 -0.16191242 101.12997036 -0.16241082 C112.77575393 -0.17070552 124.42143459 -0.19603233 136.06717325 -0.22852562 C148.02962985 -0.26162976 159.99203422 -0.27961088 171.95453686 -0.28280324 C178.66855205 -0.28496549 185.38239442 -0.29411716 192.09636784 -0.31926441 C198.41567112 -0.34255026 204.73470488 -0.34677604 211.05403996 -0.33650303 C213.37032117 -0.33600767 215.68661568 -0.34232816 218.00285625 -0.35605907 C221.17214975 -0.3737918 224.34047744 -0.36666428 227.5097723 -0.35352612 C228.42020701 -0.36449536 229.33064173 -0.37546461 230.26866537 -0.38676625 C240.59804459 -0.2838267 248.26154731 3.57694979 255.67626095 10.61859608 C263.32523645 19.35253264 264.57085486 29.01945155 264.05419064 40.17377186 C263.19893751 49.76550735 257.06421434 56.25559964 250.31688595 62.50922108 C247.59445558 64.32417466 244.98681428 65.15382531 241.87938595 66.13422108 C241.8893787 66.95868732 241.8893787 66.95868732 241.89957333 67.79980946 C241.96649592 73.57593338 242.01141989 79.35194528 242.04418087 85.1283617 C242.05916808 87.27749583 242.07956482 89.42659991 242.10570431 91.57562733 C242.46478436 121.87916747 242.46478436 121.87916747 231.87938595 135.13422108 C225.05349589 141.44934913 217.40865914 146.64419673 209.62938595 151.69672108 C201.27739194 157.18975072 193.00544678 162.77525009 184.81688595 168.50922108 C176.24729003 174.50482042 167.61202859 180.37937611 158.87938595 186.13422108 C156.87781313 187.46521333 154.8784716 188.79949322 152.87938595 190.13422108 C153.09594845 190.65886951 153.31251095 191.18351795 153.53563595 191.72406483 C157.57559682 202.96488188 157.45341449 215.34491132 152.75438595 226.32562733 C152.46563595 226.92246326 152.17688595 227.5192992 151.87938595 228.13422108 C153.36438595 227.39172108 153.36438595 227.39172108 154.87938595 226.63422108 C162.94537209 223.63459278 173.48270296 223.83182105 181.50438595 226.82172108 C190.98425741 231.3872779 196.38778241 238.83198115 200.00438595 248.50922108 C200.27508907 249.32133045 200.5457922 250.13343983 200.82469845 250.97015858 C202.13514149 253.65899357 203.28207875 254.66105382 205.87938595 256.13422108 C208.61105068 256.77789409 208.61105068 256.77789409 211.56688595 257.07172108 C220.96313828 258.48743832 228.55835364 261.83542561 234.87938595 269.13422108 C239.75704474 277.09823965 241.03026497 283.4957692 240.6645422 292.71039295 C240.56969077 297.62111007 241.09447468 300.90734464 243.87938595 305.13422108 C245.85509221 307.01689071 245.85509221 307.01689071 248.12938595 308.50922108 C256.387189 314.65893457 261.48672031 320.95115006 263.87938595 331.13422108 C265.07332429 340.07519116 262.81216768 348.15459225 258.12938595 355.75922108 C255.96811355 359.48577864 255.29207935 361.93007222 256.1567297 366.16937733 C257.24025551 369.11539616 258.92281486 371.54880912 260.66844845 374.14203358 C264.26388265 380.05710274 264.67619832 387.39119641 263.87938595 394.13422108 C260.99522213 405.88391116 255.41096678 412.65070681 245.27001095 418.98187733 C242.10150292 421.83457002 241.62470184 423.96922048 240.87938595 428.13422108 C240.84249289 430.571798 240.88610789 433.01173593 241.00438595 435.44672108 C241.10660633 445.82209016 238.3231224 452.66368143 231.12938595 460.16156483 C224.32877266 466.12390808 216.75283111 467.85301315 207.98094845 469.26312733 C204.40545381 470.26732796 203.11564018 471.20134589 200.87938595 474.13422108 C199.58888072 476.88334743 199.58888072 476.88334743 198.56688595 479.88422108 C194.54357341 489.84555514 189.39759901 494.40541044 179.74657345 499.00531483 C171.19127174 502.37381918 163.99729171 501.29998104 155.42626095 498.81390858 C151.21360909 497.68967327 148.29396713 497.47868346 144.31688595 499.32172108 C141.7763277 501.11906545 141.7763277 501.11906545 139.44188595 503.57172108 C133.54801664 509.46559038 127.48171218 512.32870068 119.11937618 512.51434803 C111.93022191 512.49639011 106.07331402 512.08860904 99.87938595 508.13422108 C98.91258907 507.52127186 98.91258907 507.52127186 97.92626095 506.89593983 C94.554991 504.60829237 91.71101691 502.07072726 88.87938595 499.13422108 C84.48745459 496.9382554 78.37447679 498.93323055 73.81688595 500.19672108 C65.14757715 502.44937612 56.16194391 501.18949363 48.38719845 496.69281483 C40.66109161 491.08683495 36.28046208 483.85477123 32.8364172 475.07953358 C31.69562437 472.76069755 30.99927011 471.6509217 28.87938595 470.13422108 C26.15966821 469.42985443 23.5073039 468.8454527 20.75438595 468.32172108 C10.55994178 466.14003069 2.76260007 462.03951175 -3.12061405 453.13422108 C-7.24094098 446.33118908 -7.49172358 439.93051688 -7.06153202 432.19916248 C-6.84577452 427.31355412 -7.37454072 424.2065894 -10.12061405 420.13422108 C-12.59088265 418.04960352 -12.59088265 418.04960352 -15.43311405 416.32172108 C-23.37780255 410.80136949 -28.1870673 403.67305172 -30.12061405 394.13422108 C-31.16343369 385.09645084 -29.06763945 377.16606643 -24.37061405 369.44672108 C-22.69903779 366.53035398 -22.1277839 365.26088845 -21.93311405 361.82172108 C-23.4078018 357.24242755 -25.48217156 353.14226603 -27.74561405 348.90375233 C-31.42116098 341.500449 -31.08736013 333.20739923 -28.55811405 325.44672108 C-25.14157831 316.9659586 -18.893992 311.35347597 -11.43311405 306.32172108 C-8.38995556 303.44305764 -8.02347413 301.20333241 -7.12061405 297.13422108 C-7.083721 294.69664415 -7.127336 292.25670622 -7.24561405 289.82172108 C-7.35216574 279.99959249 -4.90562162 273.01360398 1.92626095 265.88031483 C8.22173639 260.25215978 15.1779425 258.26962322 23.29515743 256.65277576 C27.65283637 255.72333519 30.17822302 254.7271555 32.87938595 251.13422108 C33.94524257 248.87774539 33.94524257 248.87774539 34.69188595 246.44672108 C38.41394245 236.68889728 44.43830018 230.562201 53.87938595 226.13422108 C60.90693817 223.65568653 72.01641599 224.01740519 78.87938595 226.63422108 C79.86938595 227.12922108 80.85938595 227.62422108 81.87938595 228.13422108 C81.59063595 227.53738514 81.30188595 226.9405492 81.00438595 226.32562733 C76.82708721 216.56409244 75.9058011 204.93067526 79.37938595 194.75922108 C79.87438595 193.56297108 80.36938595 192.36672108 80.87938595 191.13422108 C80.87938595 190.14422108 80.87938595 189.15422108 80.87938595 188.13422108 C79.01809282 186.47919616 79.01809282 186.47919616 76.5082922 184.93890858 C75.55422482 184.31427723 74.60015743 183.68964588 73.61717892 183.04608631 C72.56933224 182.37392078 71.52148556 181.70175526 70.44188595 181.00922108 C68.79347597 179.93190698 67.1450871 178.85455889 65.49797726 177.77525806 C64.354116 177.02617324 63.20944754 176.27831971 62.0640173 175.53163624 C55.01989439 170.93661543 48.08200748 166.18653287 41.13768673 161.44257069 C36.00696621 157.93914598 30.86742533 154.45204879 25.6957922 151.00922108 C24.70595333 150.34607899 23.71611446 149.6829369 22.69628048 148.99969959 C20.84660266 147.76119648 18.99245706 146.52932576 17.13280392 145.30585194 C6.56214187 138.19876419 -1.60772773 130.20497705 -4.69748783 117.52618885 C-5.4996425 112.9915417 -5.36291466 108.44432832 -5.31592655 103.85297108 C-5.31309666 102.7988805 -5.31026676 101.74478992 -5.30735111 100.65875721 C-5.29622391 97.31712598 -5.27113309 93.97577027 -5.24561405 90.63422108 C-5.23557461 88.3581833 -5.22645045 86.08214129 -5.2182703 83.80609608 C-5.19630905 78.24871161 -5.16290635 72.69148604 -5.12061405 67.13422108 C-5.90452518 66.98871815 -6.68843632 66.84321522 -7.49610233 66.69330311 C-14.5848633 65.18323217 -20.65813432 59.63870115 -25.12061405 54.13422108 C-30.9005975 44.78115696 -31.65595203 33.89390219 -29.54248905 23.21234608 C-26.46894696 14.43878046 -19.98697416 7.26469376 -11.74561405 3.07172108 C-7.78728785 1.30618193 -4.36011962 0.01070355 0 0 Z M100.37938595 230.63422108 C95.57829715 235.67373867 90.92395154 238.31280902 83.87938595 238.57172108 C80.55878807 238.44536652 77.98935623 237.9367186 74.94188595 236.63422108 C69.05576847 234.18265907 63.1124394 233.88049438 57.12938595 236.20062733 C49.1357351 240.56620748 45.9956201 246.00122277 42.94188595 254.32172108 C40.81263496 259.85268381 38.41881041 262.36076738 33.0317297 265.06000233 C29.45551488 266.56016401 26.30758659 267.2379463 22.44188595 267.44672108 C16.28916276 267.99929725 11.47122777 271.05920185 7.52001095 275.74701405 C3.4509653 281.41275552 3.25862048 286.31561701 3.37938595 293.13422108 C3.51588825 300.84135131 2.94971531 306.07786707 -2.12061405 312.13422108 C-4.10034375 313.9379748 -6.00170581 315.52779296 -8.12061405 317.13422108 C-16.04637983 323.42823058 -16.04637983 323.42823058 -19.53467655 332.68500233 C-19.99456977 339.11499077 -18.7253617 343.55797135 -15.62061405 349.13422108 C-12.09507477 355.57308024 -10.42233499 360.81855744 -12.12061405 368.13422108 C-13.50845281 371.14234449 -14.99897839 374.01635398 -16.60694218 376.90790272 C-20.04144758 383.32093493 -20.39031356 389.27002016 -18.56592655 396.25922108 C-16.20471983 402.4142768 -12.46730917 405.98370394 -7.12061405 409.57172108 C-2.45250388 412.73421103 0.55769969 415.38654492 2.47313595 420.81781483 C3.18481756 424.87576863 2.87809851 429.00961057 2.75243282 433.11468983 C2.62488074 441.08294378 4.9050098 447.01264581 10.4614172 452.77484608 C14.57054039 456.33896977 17.85610041 457.49838061 23.25438595 458.13422108 C29.86857061 458.93222015 34.89078588 460.5940345 39.87938595 465.13422108 C42.02888317 468.3002293 43.47772581 471.58334872 44.87938595 475.13422108 C47.8380194 482.38351342 51.79805453 486.59355537 58.87938595 490.13422108 C61.16858372 490.25757384 63.46189813 490.30980586 65.75438595 490.32172108 C66.98930782 490.33590076 68.2242297 490.35008045 69.49657345 490.36468983 C72.76167219 490.14224084 74.08524992 489.6024229 76.87938595 488.13422108 C83.69718111 487.39378352 89.88717031 487.56193868 95.87938595 491.13422108 C97.94373483 492.84350195 99.93278363 494.61991172 101.9223547 496.41547108 C107.4372654 501.25890562 111.73885785 502.83408042 119.1801672 502.50922108 C126.67432117 501.4680651 131.40972773 497.06825921 136.7036047 491.93890858 C140.85891836 488.49231089 144.56606543 487.8571123 149.87938595 487.88422108 C150.89001095 487.87906483 151.90063595 487.87390858 152.94188595 487.86859608 C155.98214842 488.14351343 158.06521372 489.00855219 160.87938595 490.13422108 C168.5332412 490.97702716 175.57927779 490.91568741 181.87938595 486.13422108 C186.5939306 481.74859814 188.28251856 476.84131124 190.62938595 470.91547108 C193.34444207 464.87447122 198.15714786 461.99534012 203.87938595 459.13422108 C205.77236341 458.84409858 207.66883393 458.57654111 209.56688595 458.32172108 C216.53245078 457.18023497 220.55602876 455.45757826 225.62938595 450.38422108 C230.20453609 443.77567088 231.04943446 439.0324318 230.87938595 431.13422108 C230.63323955 418.63799814 230.63323955 418.63799814 235.35594845 413.54047108 C237.77894797 411.37194183 240.36827115 409.50091077 243.0082922 407.60687733 C248.27491331 403.79512392 251.49004778 400.67228304 252.87938595 394.13422108 C253.87435313 386.83025743 252.9768462 381.55078522 249.37938595 375.13422108 C245.85204952 368.69705201 244.18143789 363.44845886 245.87938595 356.13422108 C247.26696251 353.12666597 248.75860115 350.25305054 250.36351681 347.36053944 C253.4636593 341.56133589 254.06780955 336.5651262 252.87938595 330.13422108 C250.9952126 324.27356561 246.53840652 320.81635024 241.87938595 317.13422108 C240.45247718 315.98010369 239.03584927 314.81316827 237.62938595 313.63422108 C236.9848547 313.10828358 236.34032345 312.58234608 235.67626095 312.04047108 C229.70731699 305.70820009 230.47697091 298.60512845 230.61571407 290.45258045 C230.52085994 283.19873563 228.6850642 278.60388889 223.87938595 273.13422108 C218.40829084 268.27446984 213.13342938 267.60402025 206.0082922 266.71234608 C200.14851213 265.62964015 196.40407912 262.95538236 192.62938595 258.44672108 C191.16994256 255.68420323 190.12475646 253.11803714 189.06688595 250.19672108 C186.52259142 243.59745715 182.64749227 239.78443831 176.62938595 236.19672108 C168.48841124 233.89011158 162.53365405 234.79417681 154.87938595 238.13422108 C148.38026045 239.17930658 143.60086005 238.13606626 138.0317297 234.70062733 C135.81936845 233.09054228 133.83169518 231.35907516 131.81688595 229.50922108 C126.59648414 224.76434102 121.00148678 222.45615274 113.8832922 222.79047108 C108.2671354 223.75386639 104.23955799 226.56397165 100.37938595 230.63422108 Z " fill="#030303" transform="translate(139.12061405181885,-0.13422107696533203)"/>
<path d="M0 0 C3.14142962 1.76931093 5.25343725 4.02639833 7.6796875 6.65625 C11.92013367 10.85770357 16.52618101 12.56224465 22.44140625 12.77734375 C25.84280792 12.64811116 27.61719644 12.23586258 30.81640625 10.83984375 C36.32050426 8.5223288 41.84152601 8.35826704 47.6171875 9.9609375 C54.14862098 12.8144764 58.84432962 17.88031574 61.71484375 24.3515625 C62.11960937 25.39957031 62.524375 26.44757813 62.94140625 27.52734375 C65.57970274 34.35082066 68.17618418 36.6153011 74.62890625 40.08984375 C77.8603024 41.1669758 79.94054318 41.49334335 83.25390625 41.65234375 C89.01919718 42.10865293 93.25215771 44.30497088 97.37890625 48.33984375 C103.17272861 55.23605826 102.98152279 61.54595619 102.828125 70.20703125 C102.87426982 76.87034383 104.05903433 81.1798883 108.37890625 86.33984375 C110.35863595 88.14359748 112.259998 89.73341564 114.37890625 91.33984375 C124.59972929 99.53981965 124.59972929 99.53981965 125.79296875 106.890625 C126.25286196 113.32061345 124.9836539 117.76359402 121.87890625 123.33984375 C118.35336697 129.77870292 116.68062719 135.02418011 118.37890625 142.33984375 C119.76674501 145.34796717 121.25727059 148.22197665 122.86523438 151.11352539 C126.29973978 157.5265576 126.64860575 163.47564283 124.82421875 170.46484375 C122.12890292 177.49083557 117.58624186 180.95351278 111.5 184.87109375 C106.75507387 188.15671479 104.84615726 191.88090112 103.37890625 197.33984375 C103.34059438 199.9559971 103.38172627 202.48448027 103.50390625 205.08984375 C103.65584046 212.9895181 102.89382521 219.33881898 97.54296875 225.4296875 C92.4007553 230.24681849 87.85669511 232.13664527 80.87890625 232.77734375 C74.13004547 233.44543567 69.7497203 236.16387974 65.37890625 241.33984375 C63.49563156 244.5782423 61.94636423 247.95877021 60.5234375 251.421875 C58.05690627 257.05504458 54.65767058 260.20727108 49.37890625 263.33984375 C46.06274435 264.44523105 43.4935399 264.50738017 40.00390625 264.52734375 C38.88242187 264.54152344 37.7609375 264.55570312 36.60546875 264.5703125 C33.38112241 264.34000205 31.33278112 263.56002492 28.37890625 262.33984375 C20.99419639 261.46386437 14.45336491 261.7972051 8.37890625 266.33984375 C6.55470605 268.0847309 4.82129085 269.89722864 3.078125 271.72265625 C-1.04206192 275.64393759 -5.56382961 276.54426333 -11.05859375 276.83984375 C-18.86604856 276.59452755 -23.1623585 272.69776048 -28.74609375 267.65234375 C-34.75832912 262.31329304 -39.98685504 262.11406379 -47.81640625 262.07421875 C-50.56429299 262.16249596 -50.56429299 262.16249596 -52.5703125 263.32421875 C-57.39623307 265.71419846 -63.41890114 264.99083163 -68.62109375 264.33984375 C-74.58048339 261.90915037 -78.6564435 258.04954053 -81.62109375 252.33984375 C-82.27716208 250.65629651 -82.92224001 248.96844128 -83.55859375 247.27734375 C-85.949169 241.09705811 -89.56768075 237.39635576 -95.40625 234.1640625 C-98.2709143 233.09802341 -101.02525266 232.81902577 -104.05859375 232.46484375 C-110.40730266 231.62661008 -114.15492008 229.9010424 -118.62109375 225.33984375 C-119.13542969 224.82421875 -119.64976562 224.30859375 -120.1796875 223.77734375 C-125.43108887 217.58872344 -124.69733544 209.84687885 -124.49609375 202.15234375 C-124.46987813 196.63832413 -125.28075811 191.9030685 -129.09765625 187.72265625 C-131.53157699 185.57769414 -134.1157391 183.70240094 -136.75 181.8125 C-142.01662111 178.0007466 -145.23175558 174.87790571 -146.62109375 168.33984375 C-147.61606093 161.0358801 -146.718554 155.75640789 -143.12109375 149.33984375 C-139.59375733 142.90267469 -137.92314569 137.65408154 -139.62109375 130.33984375 C-141.00867031 127.33228864 -142.50030895 124.45867321 -144.10522461 121.56616211 C-147.2053671 115.76695857 -147.80951735 110.77074887 -146.62109375 104.33984375 C-144.73692041 98.47918829 -140.28011432 95.02197291 -135.62109375 91.33984375 C-134.19418499 90.18572637 -132.77755707 89.01879094 -131.37109375 87.83984375 C-130.40429688 87.0509375 -130.40429688 87.0509375 -129.41796875 86.24609375 C-123.43697606 79.90104064 -124.2033781 72.74022617 -124.26953125 64.5703125 C-124.14039983 56.72557875 -122.15954262 51.85791768 -116.5859375 46.31640625 C-111.28557016 42.78282802 -106.78020957 41.62934464 -100.4921875 40.8203125 C-95.19211177 39.93336105 -91.18019376 38.0463067 -87.5546875 34.078125 C-85.53925403 31.22394549 -84.38919241 28.61039513 -83.18359375 25.33984375 C-81.28704416 20.64444673 -79.72035815 17.48579085 -75.62109375 14.33984375 C-75.05777344 13.87835938 -74.49445313 13.416875 -73.9140625 12.94140625 C-68.39183031 8.87002529 -63.33757072 8.39302761 -56.62109375 9.33984375 C-54.56634756 10.00339481 -52.63078859 10.80919778 -50.64453125 11.65234375 C-45.87949074 13.27135365 -41.02203474 13.2129132 -36.30078125 11.49609375 C-31.09817905 8.81321875 -26.94890008 5.16473766 -22.76171875 1.109375 C-15.72791477 -4.70506515 -7.80450746 -3.34819327 0 0 Z M-94.62109375 67.33984375 C-115.33397731 93.26372175 -120.16885901 121.82083566 -118.41015625 154.2265625 C-116.13617733 173.95964621 -105.58004733 193.69575152 -92.62109375 208.33984375 C-92.08226562 209.02175781 -91.5434375 209.70367187 -90.98828125 210.40625 C-75.99855107 229.04925612 -49.68215867 242.35267706 -26.09472656 245.12890625 C6.09485144 247.8738525 35.73137941 240.52476329 60.69140625 219.52734375 C81.29660295 201.51782947 93.377896 177.17838638 97.37890625 150.33984375 C99.15290127 119.53415149 93.42103057 90.775425 72.7421875 66.91796875 C71.96230469 66.0671875 71.18242187 65.21640625 70.37890625 64.33984375 C69.13173828 62.97085938 69.13173828 62.97085938 67.859375 61.57421875 C47.89229863 40.64240809 20.46192099 28.84780618 -8.40551758 28.00561523 C-41.78963108 27.52644489 -72.7286063 42.18392875 -94.62109375 67.33984375 Z " fill="#D5D5D5" transform="translate(266.62109375,225.66015625)"/>
<path d="M0 0 C0.96501838 -0.00523668 1.93003675 -0.01047336 2.92429811 -0.01586872 C6.1606996 -0.03088062 9.39694315 -0.03157415 12.63337708 -0.03224182 C14.9528378 -0.03986258 17.272296 -0.04828993 19.5917511 -0.0574646 C25.89564928 -0.07942663 32.19949896 -0.08821099 38.50343108 -0.09329104 C42.44253284 -0.09693306 46.38162186 -0.10317237 50.32071877 -0.11029243 C61.23514515 -0.12974944 72.14956097 -0.14626145 83.06400585 -0.14916897 C83.76213849 -0.14935654 84.46027113 -0.14954411 85.17955931 -0.14973736 C86.59474266 -0.1501036 88.009926 -0.1504673 89.42510935 -0.15082847 C90.12757305 -0.15101128 90.83003675 -0.1511941 91.55378723 -0.15138245 C92.25711232 -0.151563 92.96043741 -0.15174354 93.68507538 -0.15192956 C105.07533969 -0.1554694 116.46541473 -0.18248064 127.85561343 -0.21988034 C139.56049858 -0.25800447 151.26528992 -0.27732675 162.97023851 -0.27762848 C169.53781731 -0.27842131 176.10515199 -0.28716321 182.67267418 -0.31562614 C188.8525316 -0.34180936 195.03194255 -0.34401003 201.21183014 -0.3279705 C203.47651201 -0.32615617 205.74121956 -0.33284526 208.00584602 -0.34878922 C211.10517175 -0.36927449 214.20293903 -0.35868249 217.30224609 -0.34057617 C218.63666969 -0.36037612 218.63666969 -0.36037612 219.99805135 -0.38057607 C227.35898025 -0.28280828 233.9077545 1.98570084 239.387366 7.04616743 C240.90643395 8.71204046 242.20045274 10.41172037 243.46858215 12.27415466 C244.08733215 13.18165466 244.70608215 14.08915466 245.34358215 15.02415466 C247.67877622 21.77027087 247.37499572 28.09031904 244.40608215 34.58665466 C240.49185997 41.53302078 235.11780048 45.89378027 227.46858215 48.27415466 C224.20247403 48.6915792 220.97257993 48.68389113 217.68319702 48.66183472 C216.23098949 48.66991302 216.23098949 48.66991302 214.74944443 48.67815453 C211.51449865 48.69242984 208.2799623 48.6853313 205.04499817 48.6782074 C202.72199678 48.68391116 200.39899819 48.69087544 198.07600403 48.69900513 C191.77232302 48.71695052 185.4687811 48.71576554 179.16508222 48.71006274 C173.23545157 48.70658201 167.3058422 48.71453352 161.37621617 48.72142339 C148.9151841 48.73514109 136.45421488 48.72971584 123.99318426 48.71823818 C112.60171843 48.70830596 101.21041504 48.7212475 89.81897426 48.74517237 C78.11176866 48.7695745 66.40463867 48.77916856 54.69740814 48.77251965 C48.12885426 48.76914809 41.5604346 48.77157865 34.99189949 48.78877068 C28.81533614 48.80423121 22.63908309 48.80029375 16.46253204 48.78146553 C14.19701891 48.77777729 11.93148283 48.78089491 9.66599083 48.79135132 C6.57061966 48.80454623 3.47627798 48.79302619 0.38095093 48.77536011 C-0.51312625 48.78496511 -1.40720343 48.79457012 -2.32837385 48.80446619 C-9.24589106 48.72337153 -14.45838324 46.91206932 -19.7384491 42.37962341 C-25.39978283 35.61632691 -28.18570017 29.93991082 -27.86735535 20.97727966 C-26.90255652 13.21401469 -22.57397477 8.93739566 -16.8478241 3.93821716 C-11.38666575 0.01502416 -6.50008888 -0.01742762 0 0 Z " fill="#7E7E7E" transform="translate(146.5314178466797,9.725845336914063)"/>
<path d="M0 0 C0.94166016 -0.00322266 1.88332031 -0.00644531 2.85351562 -0.00976562 C14.60449188 0.08018618 26.14331622 3.57238857 35.25390625 11.26953125 C43.22514767 19.99829886 46.47446114 30.18281932 46.24609375 41.91015625 C44.72391008 58.69271294 33.59583514 70.1449164 22.49072266 81.67822266 C20.63744842 83.62820972 18.86986841 85.64024222 17.125 87.6875 C14.02030303 91.30180633 10.66389818 94.62394104 7.24609375 97.94140625 C4.33384736 100.93249518 1.65433318 104.1428613 -1.0625 107.3125 C7.1875 107.6425 15.4375 107.9725 23.9375 108.3125 C24.2675 104.6825 24.5975 101.0525 24.9375 97.3125 C32.8575 97.3125 40.7775 97.3125 48.9375 97.3125 C48.9375 108.8625 48.9375 120.4125 48.9375 132.3125 C18.5775 132.3125 -11.7825 132.3125 -43.0625 132.3125 C-43.0625 111.3125 -43.0625 111.3125 -37 104 C-33.375 100.953125 -33.375 100.953125 -31.6171875 99.57617188 C-29.65907457 97.98459013 -28.08942565 96.20499355 -26.5 94.25 C-23.53077394 90.74764606 -20.32610827 87.53673965 -17.0625 84.3125 C-13.11477231 80.40783402 -9.29647817 76.46532376 -5.703125 72.2265625 C-4.53410765 70.86270893 -3.33223289 69.52673259 -2.109375 68.2109375 C6.66542319 58.73281579 13.4969176 49.2391875 13.26171875 35.94140625 C12.80416296 32.23134545 11.40907437 30.06654001 8.9375 27.3125 C4.46290846 24.32943897 0.18092008 24.72050096 -5.0625 25.3125 C-9.20091567 27.29549084 -10.34113442 29.5857578 -11.8125 33.75 C-12.76514905 36.93472794 -13.40663805 40.03319023 -14.0625 43.3125 C-24.2925 43.3125 -34.5225 43.3125 -45.0625 43.3125 C-44.07732842 30.50526951 -41.9297826 19.55901881 -32.00390625 10.765625 C-21.84905385 3.16480992 -12.66873519 -0.21767586 0 0 Z " fill="#D5D5D5" transform="translate(254.0625,296.6875)"/>
<path d="M0 0 C18.48 0 36.96 0 56 0 C56.52212769 28.41802671 56.52212769 28.41802671 56.65330029 42.47445107 C56.72529425 50.07177191 56.81662066 57.66723377 56.98071289 65.26318359 C57.12450045 71.92240952 57.19971851 78.57920903 57.23340416 85.24005127 C57.25740271 87.77923245 57.30427141 90.31830491 57.37449074 92.85662842 C57.88795632 112.18876524 57.88795632 112.18876524 54.77477646 116.82440186 C51.36163077 120.10015216 47.47595429 121.5463145 43 123 C41.75625324 123.53234719 40.51729689 124.07603333 39.28352356 124.63110352 C33.02050867 127.24214586 25.7622983 127.17266441 19.29296875 125.15625 C16.875 124 16.875 124 14.67584229 122.58984375 C12.01757682 120.90383362 12.01757682 120.90383362 8.94012451 119.85351562 C5.18756513 118.14113012 2.23820393 116.49537203 0 113 C-2.30770347 104.85324387 -1.38939119 95.86746201 -1.171875 87.5 C-1.14948054 84.97798707 -1.13240511 82.45592178 -1.12042236 79.93383789 C-1.07937116 73.98655973 -0.98492487 68.04166846 -0.86422849 62.09561443 C-0.69290527 53.46670112 -0.63043404 44.83686828 -0.55453491 36.2066803 C-0.43834462 24.13557737 -0.20839456 12.071448 0 0 Z " fill="#D7D7D7" transform="translate(228,68)"/>
<path d="M0 0 C21.39086694 18.13588002 36.47982082 43.45017011 39.12890625 71.69140625 C41.28566178 105.95985521 32.2636124 133.5708517 9.87890625 159.81640625 C-2.11954648 172.76810393 -17.60278082 181.74855526 -34.12109375 187.62890625 C-34.91201416 187.91145264 -35.70293457 188.19399902 -36.51782227 188.48510742 C-62.22309406 197.12417692 -91.59037126 194.24604831 -115.87109375 182.69140625 C-124.62674066 178.29964068 -132.43752705 173.09570987 -139.87109375 166.69140625 C-140.59425781 166.12421875 -141.31742188 165.55703125 -142.0625 164.97265625 C-160.04465693 150.30384845 -173.81360191 124.69030844 -176.625 101.6484375 C-178.63482747 69.33168789 -174.08042727 39.47361228 -152.234375 14.26953125 C-151.45449219 13.41875 -150.67460937 12.56796875 -149.87109375 11.69140625 C-149.03964844 10.77875 -148.20820313 9.86609375 -147.3515625 8.92578125 C-132.2548578 -6.90033963 -113.20042887 -17.43408661 -91.87109375 -22.30859375 C-91.03578125 -22.53160156 -90.20046875 -22.75460938 -89.33984375 -22.984375 C-58.68261786 -30.11509052 -23.93485672 -19.59481711 0 0 Z M-135.87109375 11.69140625 C-136.65097656 12.38878906 -137.43085938 13.08617187 -138.234375 13.8046875 C-156.53747129 31.0962137 -166.70104706 55.09814766 -167.51171875 80.01708984 C-167.98004335 108.49105328 -158.90441877 132.78819033 -139.36889648 153.64331055 C-121.17448522 172.40159253 -97.08019242 182.3740843 -71.00561523 183.03466797 C-43.38377661 183.33859002 -19.89915125 173.83386937 0.12890625 154.69140625 C0.804375 154.09070313 1.47984375 153.49 2.17578125 152.87109375 C12.4511819 143.37662355 19.44379416 130.73186662 24.12890625 117.69140625 C24.49072998 116.76859863 24.49072998 116.76859863 24.85986328 115.82714844 C33.28787682 93.95537137 31.49931116 66.79370694 22.3671875 45.48046875 C10.70631398 19.87547375 -9.34193139 1.16936148 -35.59765625 -8.7109375 C-70.65977086 -21.28975669 -108.35380275 -13.09548688 -135.87109375 11.69140625 Z " fill="#040404" transform="translate(324.87109375,278.30859375)"/>
<path d="M0 0 C0.92941406 -0.00773437 1.85882813 -0.01546875 2.81640625 -0.0234375 C18.87340085 0.02135189 32.37686032 4.97449739 44.05859375 16.08984375 C53.64010534 26.16588497 56.66199116 38.83237692 56.43359375 52.375 C55.03875188 69.88997636 44.17088128 84.20411872 32.125 96.25 C34.09533203 96.30607422 34.09533203 96.30607422 36.10546875 96.36328125 C37.84117364 96.42895657 39.57684947 96.49540337 41.3125 96.5625 C42.17681641 96.58505859 43.04113281 96.60761719 43.93164062 96.63085938 C49.77328628 96.877059 53.40110232 97.61781185 57.72753906 101.79858398 C59.83811388 105.50093929 59.57332752 108.98645246 59.55859375 113.1796875 C59.5638356 114.04763947 59.56907745 114.91559143 59.57447815 115.80984497 C59.58089392 117.64388969 59.5795671 119.47797558 59.57104492 121.31201172 C59.56255012 124.10849949 59.5912765 126.90293351 59.62304688 129.69921875 C59.62465949 131.48437439 59.6240802 133.26953363 59.62109375 135.0546875 C59.63232773 135.88612274 59.64356171 136.71755798 59.65513611 137.57418823 C59.59155715 142.91120287 58.75792339 146.07467623 55.125 150.25 C52.34631031 151.93589366 50.27249029 152.50186839 47.03982544 152.51742554 C45.83294571 152.53022049 45.83294571 152.53022049 44.60168457 152.54327393 C43.72782104 152.54236755 42.85395752 152.54146118 41.95361328 152.54052734 C41.02632416 152.54724457 40.09903503 152.55396179 39.14364624 152.56088257 C36.07748052 152.57988419 33.01153344 152.58378785 29.9453125 152.5859375 C27.81305857 152.59236386 25.68080553 152.5990921 23.54855347 152.60610962 C19.07808386 152.61808776 14.60769156 152.62178988 10.13720703 152.62060547 C4.41162569 152.62040224 -1.31345951 152.64770643 -7.03892326 152.68214989 C-11.44331128 152.70439815 -15.84757951 152.70844364 -20.25201797 152.70738602 C-22.36272008 152.70974502 -24.47342535 152.71858532 -26.58407211 152.73405075 C-29.53800859 152.75366859 -32.49087006 152.74788897 -35.44482422 152.73583984 C-36.31463928 152.74707886 -37.18445435 152.75831787 -38.08062744 152.76989746 C-43.49125043 152.71387657 -46.57740445 151.84653727 -50.875 148.25 C-54.21752361 143.56709187 -53.24373032 137.37978111 -53.25 131.875 C-53.27449219 130.7509375 -53.29898438 129.626875 -53.32421875 128.46875 C-53.35210479 120.60488607 -52.17771686 116.80301518 -46.76171875 110.9765625 C-46.03597656 110.28304687 -45.31023437 109.58953125 -44.5625 108.875 C-41.78842817 106.16836914 -39.12796592 103.45861807 -36.625 100.5 C-33.39158317 96.72264389 -29.90776748 93.24344261 -26.375 89.75 C-22.2970009 85.71275219 -18.33010341 81.65765341 -14.62109375 77.2734375 C-12.39995608 74.69950168 -10.06906858 72.23593255 -7.75 69.75 C0.54013013 60.66667899 0.54013013 60.66667899 3.1875 49.0625 C3.166875 47.804375 3.14625 46.54625 3.125 45.25 C1.475 44.92 -0.175 44.59 -1.875 44.25 C-2.02195312 45.57064453 -2.02195312 45.57064453 -2.171875 46.91796875 C-2.32140625 48.07941406 -2.4709375 49.24085938 -2.625 50.4375 C-2.76421875 51.58605469 -2.9034375 52.73460937 -3.046875 53.91796875 C-3.97599154 57.65634803 -5.18498832 59.52511779 -7.875 62.25 C-11.63075569 63.50191856 -15.17058532 63.45111355 -19.0859375 63.48828125 C-19.89108795 63.496353 -20.6962384 63.50442474 -21.52578735 63.51274109 C-23.22875832 63.526563 -24.93175677 63.53729362 -26.63476562 63.54516602 C-29.23360794 63.56239135 -31.8311817 63.60629387 -34.4296875 63.65039062 C-36.08592817 63.66051714 -37.74217962 63.66903337 -39.3984375 63.67578125 C-40.17254974 63.69328934 -40.94666199 63.71079742 -41.74423218 63.72883606 C-45.50425114 63.71378189 -47.64535398 63.39717072 -50.84228516 61.34838867 C-54.88956641 57.17034611 -54.18451985 52.47344327 -54.18969727 46.98193359 C-53.95768505 33.8821671 -47.64780711 22.54405779 -38.3125 13.5 C-27.15483806 4.0117287 -14.49770429 -0.11965093 0 0 Z M-21.875 14.25 C-22.65617187 14.67410156 -23.43734375 15.09820312 -24.2421875 15.53515625 C-34.02308609 21.44650742 -40.05143111 29.5903534 -43.875 40.25 C-44.205 44.54 -44.535 48.83 -44.875 53.25 C-34.645 53.25 -24.415 53.25 -13.875 53.25 C-12.885 49.29 -11.895 45.33 -10.875 41.25 C-8.25 38.0625 -8.25 38.0625 -5.875 36.25 C-5.38 35.755 -5.38 35.755 -4.875 35.25 C0.22995843 34.72751264 4.66636917 34.41649667 9.1875 37 C13.16582002 41.61998454 13.58008774 45.34768352 13.421875 51.328125 C12.07177586 64.61594283 1.40756702 75.35957841 -7.8046875 84.21875 C-9.71594207 86.09394317 -11.45641241 88.02199095 -13.1875 90.0625 C-16.73240567 94.20235488 -20.58651977 97.98970302 -24.4609375 101.81640625 C-27.31353139 104.64744401 -30.06467532 107.5133923 -32.6875 110.5625 C-35.90606098 114.28593329 -39.39483547 117.76983547 -42.875 121.25 C-42.875 128.18 -42.875 135.11 -42.875 142.25 C-12.515 142.25 17.845 142.25 49.125 142.25 C49.125 130.7 49.125 119.15 49.125 107.25 C41.205 107.25 33.285 107.25 25.125 107.25 C24.795 110.88 24.465 114.51 24.125 118.25 C15.875 117.92 7.625 117.59 -0.875 117.25 C1.290625 114.94 3.45625 112.63 5.6875 110.25 C6.41815674 109.46898926 7.14881348 108.68797852 7.90161133 107.88330078 C11.27535013 104.27787611 14.65943795 100.68379352 18.07421875 97.1171875 C33.72002491 81.43719616 33.72002491 81.43719616 44.125 62.25 C44.5375 61.1775 44.95 60.105 45.375 59 C47.58198656 47.96506721 46.40753298 37.46151927 40.6171875 27.7109375 C34.46305963 19.15240619 24.83194535 12.9857985 14.5234375 10.6640625 C2.6483378 9.21721127 -11.16459141 8.26038126 -21.875 14.25 Z " fill="#030303" transform="translate(253.875,286.75)"/>
<path d="M0 0 C13.53 0 27.06 0 41 0 C41.1385395 6.47543902 41.25773292 12.94564059 41.32958984 19.42138672 C41.35957261 21.61915608 41.40037359 23.81680773 41.45263672 26.01416016 C42.03335828 51.07628093 42.03335828 51.07628093 33.25463867 60.96630859 C27.73274475 66.1917785 21.01745955 70.21125919 14.6875 74.375 C13.60404297 75.09816406 12.52058594 75.82132812 11.40429688 76.56640625 C3.40842314 81.86385895 3.40842314 81.86385895 0 83 C0 55.61 0 28.22 0 0 Z " fill="#D7D7D7" transform="translate(329,68)"/>
<path d="M0 0 C12.54 0 25.08 0 38 0 C38 26.73 38 53.46 38 81 C33.84552717 79.33821087 31.40159747 77.9978913 27.9375 75.375 C23.96655509 72.40616939 19.93525311 69.65713686 15.75 67 C7.85018944 61.753952 2.50285777 56.35328481 0 47 C-0.38353402 43.30488421 -0.35120944 39.64914575 -0.29296875 35.9375 C-0.28872391 34.90560547 -0.28447906 33.87371094 -0.28010559 32.81054688 C-0.26341801 29.54009033 -0.22578395 26.27026783 -0.1875 23 C-0.17244036 20.77214437 -0.1587542 18.544279 -0.14648438 16.31640625 C-0.11610888 10.87716802 -0.05736748 5.43928716 0 0 Z " fill="#D7D7D7" transform="translate(145,68)"/>
<path d="M0 0 C7.92 0 15.84 0 24 0 C24.49925868 11.60549489 24.90178178 23.20375034 25.13986778 34.81759739 C25.25420994 40.21215865 25.40885681 45.59893601 25.65966797 50.98901367 C27.2935704 86.99992214 27.2935704 86.99992214 21.80187988 94.47576904 C16.23932182 100.13432774 9.61483427 103.80932893 2 106 C1.34 106 0.68 106 0 106 C0 71.02 0 36.04 0 0 Z " fill="#B8B8B8" transform="translate(295,68)"/>
<path d="M0 0 C7.92 0 15.84 0 24 0 C24 34.32 24 68.64 24 104 C22.35 103.34 20.7 102.68 19 102 C17.86500313 101.65283684 17.86500313 101.65283684 16.70707703 101.29866028 C9.55410895 98.99252398 3.82413688 95.62581446 0 89 C-3.77884587 75.78557183 -1.859325 60.39876795 -1.30462646 46.8503418 C-1.10904685 41.56897888 -1.02323547 36.28590536 -0.92773438 31.00195312 C-0.72489627 20.66269329 -0.39125358 10.33384669 0 0 Z " fill="#B8B8B8" transform="translate(193,68)"/>
<path d="M0 0 C4.01538108 0.80670184 7.01140195 2.65497245 10.48828125 4.74609375 C19.01029444 9.00047359 29.09263253 9.42931537 38.27734375 7.20703125 C41.93626161 5.92518217 45.07583933 4.74308667 48.11328125 2.30078125 C48.73589844 1.87152344 49.35851562 1.44226563 50 1 C53 2 53 2 54.1875 4.375 C56.23175715 13.49553189 55.05960157 20.64519498 51 29 C48.2686935 27.71711361 46.30089673 26.45469945 43.875 24.5625 C37.59990418 20.02078183 29.691903 17.95110414 22 19 C15.50481014 20.24907497 10.75807231 22.44312094 5.69140625 26.6953125 C4 28 4 28 1 29 C-2.75770296 21.26651311 -4.66511232 14.02294914 -2.31640625 5.52734375 C-1.62548408 3.65292811 -0.82406656 1.81981365 0 0 Z " fill="#848484" transform="translate(230,195)"/>
</svg>
