<?xml version="1.0" encoding="UTF-8"?>
<svg version="1.1" xmlns="http://www.w3.org/2000/svg" width="512" height="512">
<path d="M0 0 C1.01951569 -0.00453111 2.03903138 -0.00906223 3.08944148 -0.01373065 C6.51016896 -0.02640419 9.93073783 -0.02475235 13.35148621 -0.02310181 C15.80226853 -0.02908521 18.25304896 -0.03589032 20.7038269 -0.04345703 C26.67291351 -0.05930581 32.64193761 -0.06556626 38.61103944 -0.06668179 C43.46402313 -0.06763263 48.3169938 -0.07174473 53.16997337 -0.07808304 C66.93429604 -0.0956938 80.69858753 -0.10492221 94.46292154 -0.10342209 C95.57565167 -0.10330222 95.57565167 -0.10330222 96.71086121 -0.10317993 C97.45358891 -0.10309817 98.19631661 -0.10301641 98.96155121 -0.10293217 C110.99655487 -0.10211939 123.03143335 -0.12125534 135.0664008 -0.14945666 C147.42894231 -0.17819658 159.79142279 -0.19199634 172.15399855 -0.19026911 C179.09258574 -0.18960558 186.0310417 -0.19508183 192.96959877 -0.21662521 C199.49574503 -0.2367585 206.02166163 -0.23615198 212.54783821 -0.22159195 C214.94235895 -0.2194991 217.33689691 -0.22423296 219.73138809 -0.23631287 C223.00199724 -0.25174324 226.2716479 -0.2424708 229.54223633 -0.22705078 C230.48826007 -0.23733791 231.43428382 -0.24762503 232.40897495 -0.25822389 C239.49718248 -0.18444897 244.71607215 1.5331455 250.16862488 6.12680054 C255.86220224 12.8316459 258.65336751 18.76601892 258.29753113 27.68930054 C257.19930381 36.11755667 253.68134001 41.23918861 247.27799988 46.67367554 C242.74495947 49.79252965 239.40926943 50.36114899 233.96159363 50.26742554 C233.98157913 51.35498138 233.98157913 51.35498138 234.00196838 52.46450806 C234.12294255 59.34771617 234.21391834 66.23076239 234.27246666 73.11476517 C234.30358158 76.65277255 234.34567901 80.18989072 234.41423035 83.72738647 C234.49280801 87.80852038 234.52117449 91.88874262 234.54753113 95.97055054 C234.57849884 97.22104187 234.60946655 98.4715332 234.64137268 99.75991821 C234.64493907 109.20609509 232.49985957 117.18570452 226.08058167 124.37368774 C221.77395127 128.43275867 216.66967659 131.57223702 211.72721863 134.79476929 C206.96523315 137.90161042 202.28045146 141.12150723 197.58659363 144.32992554 C195.65821744 145.64634531 193.72983189 146.96275135 191.80143738 148.27914429 C190.83061218 148.94220581 189.85978699 149.60526733 188.85954285 150.28842163 C185.1862802 152.79688557 181.51191511 155.3037272 177.83659363 157.80917358 C176.04789532 159.02931672 174.26013072 160.2508298 172.47331238 161.47372437 C167.9326858 164.57792243 163.38015053 167.66174152 158.79766846 170.70373535 C156.45995428 172.25680646 154.12732266 173.81742086 151.79499817 175.37857056 C150.66140789 176.13424341 149.52533083 176.88619981 148.38673401 177.63430786 C146.80398529 178.67460753 145.23020868 179.72851936 143.65690613 180.78305054 C142.74956726 181.38407593 141.84222839 181.98510132 140.90739441 182.6043396 C140.26528015 183.15315796 139.62316589 183.70197632 138.96159363 184.26742554 C138.96159363 187.65671112 139.54925978 188.47471751 141.39909363 191.20492554 C146.15741275 198.24073074 145.93593742 207.02773175 144.96159363 215.26742554 C143.03107925 221.54760508 139.36943931 226.48176451 134.96159363 231.26742554 C140.37489225 235.26471144 145.10652658 237.71374877 151.96159363 237.26742554 C153.58115429 236.84319136 155.18631524 236.36087863 156.77409363 235.82992554 C164.55337475 233.23683183 171.93666579 232.94698124 179.46159363 236.45492554 C185.39538193 239.5701644 188.07750874 243.97400227 190.33659363 250.14242554 C193.32761153 257.49798013 196.20427903 262.3404888 203.64909363 265.57992554 C207.3093124 266.88832953 210.87731813 267.65707148 214.71159363 268.26742554 C221.94187455 269.4572186 225.94237082 272.93379107 230.66471863 278.29086304 C234.08321779 283.50098526 234.10191881 288.49171562 233.83659363 294.51742554 C233.69840354 301.42692991 234.08390476 307.29433958 237.96159363 313.26742554 C240.64451159 316.11432182 240.64451159 316.11432182 243.96159363 318.26742554 C250.88195256 323.1170207 255.42322005 326.99366161 257.33659363 335.57992554 C258.4115706 342.72706976 257.51264932 348.19445715 253.46159363 354.20492554 C250.01832647 359.3800741 248.40282532 364.69341694 249.37565613 370.91586304 C250.78326335 376.06677739 252.97976704 379.84277963 255.96159363 384.26742554 C258.53230087 390.65317173 258.42588525 396.91434121 256.24284363 403.40414429 C253.39826995 409.84121835 248.77491518 413.5794326 242.83659363 417.14242554 C238.06971793 420.66576845 235.16389163 425.46692373 233.96159363 431.26742554 C233.96566952 433.26461167 233.97386285 435.26216033 234.02726746 437.25863647 C234.24943089 445.71730337 234.37669122 452.2062284 228.64909363 459.01742554 C223.39356421 463.41740365 219.4239798 465.68284204 212.58659363 466.70492554 C204.83061062 468.05593112 199.16208185 470.15565161 194.21159363 476.45492554 C192.36045041 479.28100419 191.15525596 482.1752465 189.96159363 485.32992554 C187.58929776 491.50914679 184.94206376 495.5009537 178.89909363 498.64242554 C170.53649477 501.96246063 162.6108372 500.68173596 154.34049988 497.88070679 C149.24303587 496.56658224 144.6924275 497.64432534 139.83659363 499.39242554 C137.30434743 501.04389045 135.64403829 502.54090153 133.58659363 504.70492554 C127.9361391 510.49020653 123.23898411 512.49496338 115.08659363 512.89242554 C106.19442657 512.62613604 100.79392396 508.90535317 94.39909363 503.07992554 C90.2240028 499.35566611 85.46479061 497.30578171 79.82096863 497.24398804 C76.7796391 497.55740749 74.05920936 498.22971037 71.21159363 499.32992554 C62.92387949 501.72061231 55.68872507 500.82416955 48.11784363 496.84945679 C43.58154776 493.52119623 41.48848107 489.58552245 39.58659363 484.39242554 C36.59557573 477.03687095 33.71890823 472.19436227 26.27409363 468.95492554 C22.61387486 467.64652154 19.04586912 466.8777796 15.21159363 466.26742554 C7.98131271 465.07763247 3.98081643 461.60106001 -0.74153137 456.24398804 C-4.16003054 451.03386582 -4.17873155 446.04313546 -3.91340637 440.01742554 C-3.77521628 433.10792117 -4.16071751 427.24051149 -8.03840637 421.26742554 C-10.72132433 418.42052926 -10.72132433 418.42052926 -14.03840637 416.26742554 C-20.95476141 411.42063619 -25.9678709 406.99630951 -27.78450012 398.40414429 C-28.65191783 391.10449063 -26.6152883 385.5169962 -23.03840637 379.26742554 C-19.59138157 373.01171386 -18.31076545 368.1852479 -20.22590637 361.20492554 C-21.5940382 357.04404753 -23.59067298 353.89954606 -26.03840637 350.26742554 C-28.60911362 343.88167935 -28.50269799 337.62050986 -26.31965637 331.13070679 C-23.47508269 324.69363273 -18.85172793 320.95541847 -12.91340637 317.39242554 C-8.14653067 313.86908263 -5.24070438 309.06792734 -4.03840637 303.26742554 C-4.04248226 301.2702394 -4.05067559 299.27269075 -4.1040802 297.2762146 C-4.32624363 288.8175477 -4.45350397 282.32862268 1.27409363 275.51742554 C6.52962305 271.11744742 10.49920745 268.85200904 17.33659363 267.82992554 C25.01347327 266.49269888 30.70821308 264.4150231 35.64909363 258.20492554 C37.74064773 255.03273516 39.02854923 251.67721568 40.39909363 248.14242554 C43.125872 241.33822156 45.77017021 239.11845112 52.08659363 235.45492554 C59.88911973 232.44070464 67.95340609 234.0702304 75.58268738 236.65414429 C80.84582031 238.01097823 85.4558596 236.86971915 90.39909363 234.89242554 C93.18855816 233.36638778 93.18855816 233.36638778 94.96159363 230.26742554 C94.49108582 229.77113647 94.020578 229.27484741 93.53581238 228.76351929 C92.91319519 228.08418335 92.290578 227.40484741 91.64909363 226.70492554 C90.72676941 225.71299194 90.72676941 225.71299194 89.78581238 224.70101929 C85.74119953 219.3053152 84.42399059 214.04166966 84.52409363 207.39242554 C84.53094177 206.69061157 84.53778992 205.98879761 84.54484558 205.26571655 C84.8254456 196.17616761 88.5806335 190.29256793 93.96159363 183.26742554 C93.27194519 183.03281616 92.58229675 182.79820679 91.87174988 182.55648804 C88.37281775 181.00662549 85.45603881 178.90668785 82.39909363 176.64242554 C81.13843676 175.72559907 79.87670286 174.81025184 78.61393738 173.89633179 C77.99115906 173.44532104 77.36838074 172.9943103 76.72673035 172.52963257 C74.34107066 170.82370441 71.90883601 169.196029 69.46159363 167.57992554 C60.88179846 161.91316427 52.41137428 156.08554846 43.92106628 150.28598022 C40.96213794 148.2677968 37.99956059 146.2550854 35.03581238 144.24398804 C29.66752561 140.59995082 24.30905123 136.94196083 18.96159363 133.26742554 C18.31996277 132.82753296 17.67833191 132.38764038 17.01725769 131.93441772 C8.45697709 126.032975 2.09109844 120.49960363 -1.03840637 110.26742554 C-1.56198363 105.59084556 -1.50569104 100.9643465 -1.42903137 96.26351929 C-1.42337158 94.94449112 -1.41771179 93.62546295 -1.41188049 92.26646423 C-1.39673481 88.78923242 -1.3575524 85.31268753 -1.31306458 81.83572388 C-1.27186978 78.27594287 -1.25381828 74.71604897 -1.23371887 71.15609741 C-1.1910443 64.19292771 -1.12293095 57.23020976 -1.03840637 50.26742554 C-1.64023743 50.28482788 -2.24206848 50.30223022 -2.86213684 50.32015991 C-3.66022766 50.33369507 -4.45831848 50.34723022 -5.28059387 50.36117554 C-6.46177795 50.38727905 -6.46177795 50.38727905 -7.66682434 50.41390991 C-13.65521028 50.04402814 -17.86207938 46.76548447 -21.85090637 42.51742554 C-26.74897642 36.45634343 -28.68575082 30.65467872 -28.37434387 22.84555054 C-27.27611656 14.4172944 -23.75815275 9.29566246 -17.35481262 3.86117554 C-11.68808169 -0.03768824 -6.67188761 -0.02168978 0 0 Z " fill="#FD891F" transform="translate(141.0384063720703,-0.267425537109375)"/>
<path d="M0 0 C28.14515199 -0.96592829 54.03428782 10.3464627 74.609375 28.98828125 C91.94374541 45.37659448 104.02920261 69.15713958 105.04907227 93.09277344 C105.8344121 123.68980542 99.60086224 150.27546492 78.02734375 173.03515625 C76.98707031 174.10636719 76.98707031 174.10636719 75.92578125 175.19921875 C75.10207031 176.11574219 75.10207031 176.11574219 74.26171875 177.05078125 C63.00943134 189.18994845 45.26343698 198.58531677 29.42578125 202.82421875 C28.54921875 203.06398438 27.67265625 203.30375 26.76953125 203.55078125 C19.17455837 205.28260199 11.80301308 205.3504975 4.05078125 205.32421875 C2.35115234 205.33001953 2.35115234 205.33001953 0.6171875 205.3359375 C-27.1782262 205.3037296 -50.03462955 194.04800044 -70.07421875 175.19921875 C-70.67878906 174.67070312 -71.28335938 174.1421875 -71.90625 173.59765625 C-82.54436989 163.88134066 -88.92706793 150.39777868 -94.07421875 137.19921875 C-94.41195312 136.34585938 -94.7496875 135.4925 -95.09765625 134.61328125 C-98.82098265 124.40178211 -99.38171059 113.77940779 -99.26171875 103.01171875 C-99.26107422 101.90119141 -99.26042969 100.79066406 -99.25976562 99.64648438 C-99.20954561 90.21070169 -98.61522193 81.66302403 -95.57421875 72.69921875 C-95.31431152 71.9309375 -95.0544043 71.16265625 -94.78662109 70.37109375 C-90.36073923 57.85282824 -84.13774424 45.97390567 -75.07421875 36.19921875 C-74.58324707 35.66200195 -74.09227539 35.12478516 -73.58642578 34.57128906 C-53.85529126 13.18262127 -28.9648279 1.87700918 0 0 Z " fill="#FEDEB6" transform="translate(253.07421875,263.80078125)"/>
<path d="M0 0 C3.69272721 2.14515274 6.73487501 4.96613909 9.88671875 7.82421875 C14.82866538 12.10309497 20.30408247 13.65689103 26.75 13.4375 C29.15576898 12.84866116 29.15576898 12.84866116 31.5625 12 C39.34178113 9.40690629 46.72507216 9.1170557 54.25 12.625 C60.1837883 15.74023886 62.86591512 20.14407673 65.125 26.3125 C68.1160179 33.66805459 70.9926854 38.51056327 78.4375 41.75 C82.09771877 43.058404 85.6657245 43.82714594 89.5 44.4375 C96.73028092 45.62729306 100.7307772 49.10386553 105.453125 54.4609375 C108.87162416 59.67105972 108.89032518 64.66179008 108.625 70.6875 C108.48680991 77.59700437 108.87231114 83.46441405 112.75 89.4375 C115.43291796 92.28439628 115.43291796 92.28439628 118.75 94.4375 C125.67035893 99.28709516 130.21162642 103.16373607 132.125 111.75 C133.19997698 118.89714422 132.30105569 124.36453161 128.25 130.375 C124.80673284 135.55014856 123.19123169 140.8634914 124.1640625 147.0859375 C125.57166973 152.23685185 127.76817341 156.01285409 130.75 160.4375 C133.32070725 166.82324619 133.21429162 173.08441567 131.03125 179.57421875 C128.18667632 186.01129281 123.56332156 189.74950707 117.625 193.3125 C112.8581243 196.83584291 109.95229801 201.6369982 108.75 207.4375 C108.75407589 209.43468613 108.76226922 211.43223479 108.81567383 213.42871094 C109.03783726 221.88737783 109.16509759 228.37630286 103.4375 235.1875 C98.18197058 239.58747812 94.21238618 241.8529165 87.375 242.875 C79.61901699 244.22600558 73.95048822 246.32572607 69 252.625 C67.14885678 255.45107865 65.94366234 258.34532097 64.75 261.5 C62.37770413 267.67922126 59.73047013 271.67102816 53.6875 274.8125 C45.32490114 278.1325351 37.39924357 276.85181042 29.12890625 274.05078125 C24.03144224 272.7366567 19.48083387 273.81439981 14.625 275.5625 C12.0927538 277.21396491 10.43244466 278.710976 8.375 280.875 C2.72454547 286.66028099 -1.97260952 288.66503784 -10.125 289.0625 C-19.01716705 288.79621051 -24.41766967 285.07542763 -30.8125 279.25 C-34.98759083 275.52574058 -39.74680302 273.47585617 -45.390625 273.4140625 C-48.43195453 273.72748196 -51.15238427 274.39978483 -54 275.5 C-62.28771414 277.89068677 -69.52286855 276.99424401 -77.09375 273.01953125 C-81.63004587 269.69127069 -83.72311256 265.75559691 -85.625 260.5625 C-88.6160179 253.20694541 -91.4926854 248.36443673 -98.9375 245.125 C-102.59771877 243.816596 -106.1657245 243.04785406 -110 242.4375 C-117.23028092 241.24770694 -121.2307772 237.77113447 -125.953125 232.4140625 C-129.37162416 227.20394028 -129.39032518 222.21320992 -129.125 216.1875 C-128.98680991 209.27799563 -129.37231114 203.41058595 -133.25 197.4375 C-135.93291796 194.59060372 -135.93291796 194.59060372 -139.25 192.4375 C-146.16635504 187.59071066 -151.17946453 183.16638398 -152.99609375 174.57421875 C-153.86351146 167.2745651 -151.82688193 161.68707066 -148.25 155.4375 C-144.8029752 149.18178833 -143.52235908 144.35532236 -145.4375 137.375 C-146.80563183 133.21412199 -148.8022666 130.06962052 -151.25 126.4375 C-153.82070725 120.05175381 -153.71429162 113.79058433 -151.53125 107.30078125 C-148.68667632 100.86370719 -144.06332156 97.12549293 -138.125 93.5625 C-133.3581243 90.03915709 -130.45229801 85.2380018 -129.25 79.4375 C-129.25407589 77.44031387 -129.26226922 75.44276521 -129.31567383 73.44628906 C-129.53783726 64.98762217 -129.66509759 58.49869714 -123.9375 51.6875 C-118.68197058 47.28752188 -114.71238618 45.0220835 -107.875 44 C-100.19812036 42.66277334 -94.50338054 40.58509757 -89.5625 34.375 C-87.4709459 31.20280962 -86.1830444 27.84729014 -84.8125 24.3125 C-82.08572163 17.50829603 -79.44142342 15.28852558 -73.125 11.625 C-65.3224739 8.6107791 -57.25818754 10.24030486 -49.62890625 12.82421875 C-43.21990359 14.47645753 -37.85951992 12.58707836 -32.25 9.4375 C-29.39102703 7.21297318 -26.67447549 4.86374904 -23.93359375 2.49609375 C-17.19488309 -2.67319376 -7.79479246 -3.5964092 0 0 Z M-19.03125 40.53125 C-43.41058282 41.9653284 -65.20966041 53.59387428 -82.25 70.4375 C-83.05050781 71.16582031 -83.85101563 71.89414062 -84.67578125 72.64453125 C-100.77077811 87.62761123 -111.4379031 111.53315808 -112.37451172 133.3359375 C-113.14909084 163.93421825 -106.92774263 190.51093819 -85.3515625 213.2734375 C-84.65804687 213.98757813 -83.96453125 214.70171875 -83.25 215.4375 C-82.70085937 216.04851562 -82.15171875 216.65953125 -81.5859375 217.2890625 C-70.55319982 229.19137556 -53.8263424 238.14506326 -38.25 242.4375 C-36.5175 242.994375 -36.5175 242.994375 -34.75 243.5625 C-26.37356971 245.65660757 -17.89651031 245.62005814 -9.3125 245.625 C-8.19681641 245.63724609 -7.08113281 245.64949219 -5.93164062 245.66210938 C0.89321188 245.67410384 7.12233998 245.04648691 13.75 243.4375 C14.68070312 243.24929688 15.61140625 243.06109375 16.5703125 242.8671875 C34.65317546 238.51504082 50.70776506 227.30082911 63.75 214.4375 C64.55566406 213.64472656 65.36132812 212.85195313 66.19140625 212.03515625 C86.23413374 191.08614891 92.29274261 164.60403617 91.953125 136.44140625 C91.73587903 128.19252516 90.9067917 120.76878527 88.25 112.9375 C87.99009277 112.16921875 87.73018555 111.4009375 87.46240234 110.609375 C82.98494741 97.94523903 76.66812249 86.50754665 67.75 76.4375 C67.234375 75.78007812 66.71875 75.12265625 66.1875 74.4453125 C60.72579591 67.64549091 53.7495352 62.54982401 46.75 57.4375 C45.56664062 56.56931641 45.56664062 56.56931641 44.359375 55.68359375 C25.47244364 43.21686028 3.06569067 39.7864093 -19.03125 40.53125 Z " fill="#FE8C00" transform="translate(266.25,223.5625)"/>
<path d="M0 0 C1.01951569 -0.00453111 2.03903138 -0.00906223 3.08944148 -0.01373065 C6.51016896 -0.02640419 9.93073783 -0.02475235 13.35148621 -0.02310181 C15.80226853 -0.02908521 18.25304896 -0.03589032 20.7038269 -0.04345703 C26.67291351 -0.05930581 32.64193761 -0.06556626 38.61103944 -0.06668179 C43.46402313 -0.06763263 48.3169938 -0.07174473 53.16997337 -0.07808304 C66.93429604 -0.0956938 80.69858753 -0.10492221 94.46292154 -0.10342209 C95.57565167 -0.10330222 95.57565167 -0.10330222 96.71086121 -0.10317993 C97.45358891 -0.10309817 98.19631661 -0.10301641 98.96155121 -0.10293217 C110.99655487 -0.10211939 123.03143335 -0.12125534 135.0664008 -0.14945666 C147.42894231 -0.17819658 159.79142279 -0.19199634 172.15399855 -0.19026911 C179.09258574 -0.18960558 186.0310417 -0.19508183 192.96959877 -0.21662521 C199.49574503 -0.2367585 206.02166163 -0.23615198 212.54783821 -0.22159195 C214.94235895 -0.2194991 217.33689691 -0.22423296 219.73138809 -0.23631287 C223.00199724 -0.25174324 226.2716479 -0.2424708 229.54223633 -0.22705078 C230.48826007 -0.23733791 231.43428382 -0.24762503 232.40897495 -0.25822389 C239.49718248 -0.18444897 244.71607215 1.5331455 250.16862488 6.12680054 C255.86220224 12.8316459 258.65336751 18.76601892 258.29753113 27.68930054 C257.19930381 36.11755667 253.68134001 41.23918861 247.27799988 46.67367554 C241.61126895 50.57253931 236.59507487 50.55654085 229.92318726 50.53485107 C228.90367157 50.53938219 227.88415588 50.5439133 226.83374578 50.54858172 C223.4130183 50.56125526 219.99244943 50.55960342 216.57170105 50.55795288 C214.12091873 50.56393628 211.6701383 50.57074139 209.21936035 50.57830811 C203.25027375 50.59415688 197.28124964 50.60041734 191.31214782 50.60153286 C186.45916413 50.6024837 181.60619345 50.6065958 176.75321388 50.61293411 C162.98889122 50.63054487 149.22459973 50.63977328 135.46026572 50.63827316 C134.71844563 50.63819325 133.97662554 50.63811334 133.21232605 50.63803101 C132.46959835 50.63794924 131.72687065 50.63786748 130.96163604 50.63778324 C118.92663238 50.63697047 106.89175391 50.65610642 94.85678645 50.68430774 C82.49424494 50.71304766 70.13176446 50.72684742 57.7691887 50.72512019 C50.83060151 50.72445665 43.89214555 50.7299329 36.95358849 50.75147629 C30.42744222 50.77160957 23.90152563 50.77100305 17.37534904 50.75644302 C14.9808283 50.75435017 12.58629035 50.75908403 10.19179916 50.77116394 C6.92119002 50.78659431 3.65153936 50.77732188 0.38095093 50.76190186 C-0.56507282 50.77218898 -1.51109656 50.78247611 -2.48578769 50.79307497 C-9.57399522 50.71930005 -14.7928849 49.00170558 -20.24543762 44.40805054 C-25.93901498 37.70320518 -28.73018026 31.76883216 -28.37434387 22.84555054 C-27.27611656 14.4172944 -23.75815275 9.29566246 -17.35481262 3.86117554 C-11.68808169 -0.03768824 -6.67188761 -0.02168978 0 0 Z " fill="#B25722" transform="translate(141.0384063720703,-0.267425537109375)"/>
<path d="M0 0 C1.69745361 0.01426025 1.69745361 0.01426025 3.42919922 0.02880859 C17.37309353 0.37297948 29.08880677 3.43448235 39.171875 13.4765625 C46.59748699 21.42380839 48.6649138 29.6088789 48.51953125 40.3671875 C47.79325436 48.97725264 44.64218779 55.1229096 38.28125 60.90234375 C31.35588235 66.5625 31.35588235 66.5625 28.25 66.5625 C28.25 67.2225 28.25 67.8825 28.25 68.5625 C29.57837891 68.92988281 29.57837891 68.92988281 30.93359375 69.3046875 C39.05244851 72.38392334 45.49750575 79.84806995 49.25 87.5625 C52.04249624 95.93998872 51.35511647 107.51256544 47.50390625 115.4296875 C39.64455082 128.79793692 29.08321449 134.41844081 14.4140625 138.67578125 C0.1202193 142.11237522 -16.54278474 139.94876586 -29.25 132.6875 C-30.77066752 131.67624349 -32.27272321 130.63614925 -33.75 129.5625 C-34.40613281 129.09972656 -35.06226563 128.63695312 -35.73828125 128.16015625 C-42.04081167 123.28817877 -44.84708881 116.81977796 -47.75 109.5625 C-47.75 105.9325 -47.75 102.3025 -47.75 98.5625 C-37.19 98.5625 -26.63 98.5625 -15.75 98.5625 C-14.76 101.5325 -13.77 104.5025 -12.75 107.5625 C-8.62641378 111.68608622 -5.37552272 113.67951782 0.4375 113.875 C5.41368618 113.77774555 9.39235812 112.81929021 13.25 109.5625 C16.63384963 104.62493913 18.03866006 99.53378333 17.25 93.5625 C15.35672504 88.3034029 12.65216785 85.77241406 8.25 82.5625 C5.39493951 81.61081317 3.34062718 81.3724054 0.36328125 81.24609375 C-0.48194092 81.20798584 -1.32716309 81.16987793 -2.19799805 81.13061523 C-3.26703369 81.08751221 -4.33606934 81.04440918 -5.4375 81 C-8.840625 80.855625 -12.24375 80.71125 -15.75 80.5625 C-15.75 72.6425 -15.75 64.7225 -15.75 56.5625 C-12.965625 56.48 -10.18125 56.3975 -7.3125 56.3125 C2.55187353 55.88815936 2.55187353 55.88815936 11.25 51.5625 C14.95269675 47.07438273 14.60530633 42.05033007 14.6484375 36.46484375 C14.18930607 33.12038635 13.2595231 31.25751462 11.25 28.5625 C6.08735858 25.56816797 1.18693032 24.56941347 -4.75 25.5625 C-8.5526029 27.5675088 -10.36790841 28.98936262 -12.75 32.5625 C-13.08 34.2125 -13.41 35.8625 -13.75 37.5625 C-24.31 37.5625 -34.87 37.5625 -45.75 37.5625 C-45.75 26.85134214 -43.3407894 19.2953208 -35.75 11.5625 C-25.07679474 3.08621057 -13.4845413 -0.1837241 0 0 Z " fill="#FD811F" transform="translate(254.75,297.4375)"/>
<path d="M0 0 C17.82 0 35.64 0 54 0 C54.12636698 7.61010012 54.24648912 15.2163297 54.3105011 22.8265686 C54.34198908 26.3714964 54.38395123 29.91554218 54.45263672 33.45996094 C54.53121439 37.54109484 54.55958087 41.62131709 54.5859375 45.703125 C54.61690521 46.95361633 54.64787292 48.20410767 54.67977905 49.49249268 C54.68334544 58.93866955 52.53826594 66.91827898 46.11898804 74.10626221 C41.83259641 78.14625776 36.75610253 81.27414013 31.8359375 84.48046875 C26.6729382 87.84857494 21.59217763 91.33871503 16.5 94.8125 C15.53175293 95.47121094 14.56350586 96.12992187 13.56591797 96.80859375 C12.64697754 97.43507813 11.72803711 98.0615625 10.78125 98.70703125 C9.95689453 99.2688208 9.13253906 99.83061035 8.28320312 100.40942383 C6.7669891 101.46568285 5.27989196 102.5650713 3.82617188 103.70581055 C2 105 2 105 0 105 C0 70.35 0 35.7 0 0 Z " fill="#FE8114" transform="translate(321,50)"/>
<path d="M0 0 C16.83 0 33.66 0 51 0 C51 33.99 51 67.98 51 103 C46.55048267 101.22019307 43.22295599 99.17947053 39.4375 96.375 C34.95490975 93.10967757 30.44691602 89.92427634 25.8125 86.875 C3.74400793 72.2413475 3.74400793 72.2413475 0 60 C-0.52357726 55.32342002 -0.46728467 50.69692096 -0.390625 45.99609375 C-0.38496521 44.67706558 -0.37930542 43.35803741 -0.37347412 41.9990387 C-0.35832844 38.52180688 -0.31914602 35.04526199 -0.2746582 31.56829834 C-0.23346343 28.00851903 -0.21519144 24.44862351 -0.1953125 20.88867188 C-0.15476814 13.92517805 -0.07645264 6.96356122 0 0 Z " fill="#FE8114" transform="translate(140,50)"/>
<path d="M0 0 C8.25 0 16.5 0 25 0 C25.36217153 13.63053449 25.65538286 27.25785169 25.82899475 40.8921175 C25.9123422 47.22392967 26.02527008 53.55226779 26.20703125 59.88208008 C26.38150606 65.99674973 26.47666587 72.10809023 26.51803589 78.2250576 C26.54749426 80.55263892 26.60503107 82.88004713 26.69168091 85.20620155 C27.32594117 102.94657258 27.32594117 102.94657258 23.44989014 108.03493881 C19.71672027 111.49885868 15.54687114 113.87444103 10.95822144 116.02960777 C9.05569364 116.97240114 7.40028751 118.0388834 5.67016602 119.26460266 C3 121 3 121 0 121 C0 81.07 0 41.14 0 0 Z " fill="#EC5D1C" transform="translate(296,50)"/>
<path d="M0 0 C8.25 0 16.5 0 25 0 C25 39.27 25 78.54 25 119 C20.61877351 118.1237547 19.24296524 117.77868107 15.8984375 115.34765625 C15.16109375 114.81849609 14.42375 114.28933594 13.6640625 113.74414062 C12.90867188 113.18919922 12.15328125 112.63425781 11.375 112.0625 C9.86204911 110.96995522 8.34903097 109.87750356 6.8359375 108.78515625 C6.17126465 108.29926025 5.5065918 107.81336426 4.82177734 107.31274414 C3.23969353 106.17271939 1.62252914 105.08168609 0 104 C-0.36914349 102.1296978 -0.36914349 102.1296978 -0.36076355 99.81124878 C-0.36488754 98.93342743 -0.36901154 98.05560608 -0.3732605 97.15118408 C-0.36247467 96.18589783 -0.35168884 95.22061157 -0.34057617 94.22607422 C-0.34101425 93.21141083 -0.34145233 92.19674744 -0.34190369 91.15133667 C-0.33980772 87.7855936 -0.31643831 84.42034393 -0.29296875 81.0546875 C-0.28737568 78.72584302 -0.28310422 76.39699502 -0.28010559 74.06814575 C-0.26863413 67.92940579 -0.23914705 61.79087773 -0.20599365 55.65222168 C-0.17534237 49.39187487 -0.16161083 43.13149392 -0.14648438 36.87109375 C-0.1142796 24.58062094 -0.0614928 12.29036121 0 0 Z " fill="#EC5C1C" transform="translate(191,50)"/>
<path d="M0 0 C4.25108502 0.86596176 7.74780886 2.84336318 11.5625 4.84375 C17.44947086 7.63628746 23.60037017 7.9812885 29.85546875 6.17578125 C32.60096821 5.17910196 35.30261303 4.11982429 38 3 C39.66634902 2.33253976 41.33292009 1.66563263 43 1 C43.96861464 2.20010745 44.9243885 3.41058244 45.875 4.625 C46.40867187 5.29789063 46.94234375 5.97078125 47.4921875 6.6640625 C52.1167585 13.82855333 52.0217603 22.76310445 51 31 C48.92477037 38.24477485 44.94271351 42.57209581 39 47 C38.55269531 46.59007812 38.10539062 46.18015625 37.64453125 45.7578125 C36.73767578 44.94957031 36.73767578 44.94957031 35.8125 44.125 C35.22082031 43.59132812 34.62914062 43.05765625 34.01953125 42.5078125 C28.24500034 38.19646061 21.93358268 38.26161847 15 39 C9.96130209 40.60247114 5.96110926 43.5340294 2 47 C-4.61270054 41.22317453 -8.49522681 36.08415886 -9.37890625 27.18359375 C-9.80693713 17.4842309 -8.4492785 10.08504299 -2.25 2.4375 C-1.5075 1.633125 -0.765 0.82875 0 0 Z " fill="#F16923" transform="translate(235,184)"/>
</svg>
