<?xml version="1.0" encoding="UTF-8"?>
<svg version="1.1" xmlns="http://www.w3.org/2000/svg" width="64" height="64">
<path d="M0 0 C5.28 0 10.56 0 16 0 C16 5.28 16 10.56 16 16 C14.68 16 13.36 16 12 16 C11.505 12.535 11.505 12.535 11 9 C10.48614746 9.54003662 9.97229492 10.08007324 9.44287109 10.63647461 C7.10019942 13.0832826 4.7380312 15.51035555 2.375 17.9375 C1.56675781 18.78763672 0.75851563 19.63777344 -0.07421875 20.51367188 C-0.86699219 21.32255859 -1.65976562 22.13144531 -2.4765625 22.96484375 C-3.19924316 23.7137085 -3.92192383 24.46257324 -4.66650391 25.23413086 C-7.48984064 27.37068606 -9.49093456 27.79471427 -13 28 C-15.1953125 26.70703125 -15.1953125 26.70703125 -17.125 24.8125 C-17.79789063 24.16796875 -18.47078125 23.5234375 -19.1640625 22.859375 C-19.76992188 22.24578125 -20.37578125 21.6321875 -21 21 C-22.2375 19.7934375 -22.2375 19.7934375 -23.5 18.5625 C-23.995 18.046875 -24.49 17.53125 -25 17 C-28.14940886 18.38542876 -30.17880285 19.97887844 -32.53125 22.4765625 C-33.17707031 23.146875 -33.82289062 23.8171875 -34.48828125 24.5078125 C-35.83333335 25.92338189 -37.17446663 27.34268487 -38.51171875 28.765625 C-39.15753906 29.43335937 -39.80335937 30.10109375 -40.46875 30.7890625 C-41.05076172 31.40475098 -41.63277344 32.02043945 -42.23242188 32.65478516 C-44 34 -44 34 -48 34 C-47.21780636 27.62286219 -43.21479643 24.59008609 -38.8125 20.25 C-38.05646484 19.47011719 -37.30042969 18.69023438 -36.52148438 17.88671875 C-33.35375045 14.72722698 -30.93884064 12.34635758 -26.70703125 10.78515625 C-23.35696809 11.05103428 -22.254333 11.85151517 -19.875 14.1875 C-19.20210937 14.83203125 -18.52921875 15.4765625 -17.8359375 16.140625 C-17.23007812 16.75421875 -16.62421875 17.3678125 -16 18 C-15.175 18.804375 -14.35 19.60875 -13.5 20.4375 C-13.005 20.953125 -12.51 21.46875 -12 22 C-8.84795019 20.60652624 -6.73828227 18.97514921 -4.328125 16.5234375 C-3.66425781 15.853125 -3.00039063 15.1828125 -2.31640625 14.4921875 C-1.63449219 13.79351562 -0.95257813 13.09484375 -0.25 12.375 C0.44738281 11.66859375 1.14476562 10.9621875 1.86328125 10.234375 C3.58012488 8.49401297 5.29211832 6.74915019 7 5 C4.69 4.67 2.38 4.34 0 4 C0 2.68 0 1.36 0 0 Z " fill="#34CA4F" transform="translate(48,20)"/>
</svg>
